# xmcd CD database file
#
# Track frame offsets:
#	150
#	51310
#	73961
#	103309
#	121603
#	128679
#	153050
#
# Disc length: 3436 seconds
#
# Revision: 0
# Processed by: cddbd v1.5.2PL0 Copyright (c) Steve Scherf et al.
# Submitted via: CDex 1.70beta2
#
DISCID=5b0d6a07
DTITLE=Napoleon Hill - Réfléchissez et devenez riche - CD2
DYEAR=2007
DGENRE=New Age
TTITLE0=Huitième étape vers la richesse - La persévérance
TTITLE1=Neuvième étape vers la richesse - Le Pouvoir du cerveau collectif
TTITLE2=Dixième étape vers la richesse - Le mystère
TTITLE3=Onzième étape vers la richesse - Le subconscient
TTITLE4=Douzième étape vers la richesse - Le cerveau humain
TTITLE5=Treizième étape vers la richesse - Le sixième sens
TTITLE6=Les six fantômes de la peur
EXTD=YEAR: 2007
EXTT0=
EXTT1=
EXTT2=
EXTT3=
EXTT4=
EXTT5=
EXTT6=
PLAYORDER=
